<svg viewBox="0 0 20 13" xmlns="http://www.w3.org/2000/svg">
	<path d="M17.8,12.6h-1.3c-1,0-1.8-0.6-1.8-1.4v-0.4H5.3v0.4c0,0.8-0.8,1.4-1.8,1.4H2.2c-1,0-1.8-0.6-1.8-1.4V5.4
		l2.9-3.4C4.1,1,5.5,0.4,7,0.4h6c1.5,0,2.9,0.6,3.7,1.5l2.9,3.4v5.8C19.6,12,18.8,12.6,17.8,12.6z M4.3,9.7h11.4v1.4
		c0,0.2,0.3,0.4,0.8,0.4h1.3c0.5,0,0.8-0.3,0.8-0.4V5.7L16,2.6c-0.6-0.7-1.8-1.2-3-1.2H7c-1.2,0-2.4,0.5-3,1.2L1.4,5.7v5.4
		c0,0.2,0.3,0.4,0.8,0.4h1.3c0.5,0,0.8-0.3,0.8-0.4V9.7z M17.2,8.9h-3.9v-1h3.9V8.9z M6.7,8.9H2.8v-1h3.9V8.9z M15.9,6.1H4.1v-1h11.7
		V6.1z"/>
</svg>
