<svg viewBox="0 0 10 13" xmlns="http://www.w3.org/2000/svg">
	<path d="M5,0C2.5,0,0.4,2.1,0.4,4.6c0,0.9,0.2,1.7,0.7,2.4l3.6,5.8C4.8,12.9,4.9,13,5.1,13c0,0,0,0,0,0
		c0.1,0,0.3-0.1,0.3-0.2l3.5-5.9c0.4-0.7,0.6-1.5,0.6-2.3C9.6,2.1,7.5,0,5,0z M8.3,6.5l-3.2,5.4L1.8,6.6C1.4,6,1.2,5.3,1.2,4.6
		c0-2.1,1.7-3.8,3.8-3.8s3.8,1.7,3.8,3.8C8.8,5.3,8.6,5.9,8.3,6.5z"/>
	<path d="M5,2.3c-1.3,0-2.3,1-2.3,2.3c0,1.3,1,2.3,2.3,2.3c1.3,0,2.3-1,2.3-2.3C7.3,3.3,6.3,2.3,5,2.3z M5,6.1
		c-0.8,0-1.5-0.7-1.5-1.5C3.5,3.7,4.2,3,5,3s1.5,0.7,1.5,1.5C6.5,5.4,5.9,6.1,5,6.1z"/>
</svg>
